M48
; DRILL file {KiCad (6.0.4)} date Thu 14 Apr 2022 06:16:01 PM CEST
; FORMAT={-:-/ absolute / metric / decimal}
; #@! TF.CreationDate,2022-04-14T18:16:01+02:00
; #@! TF.GenerationSoftware,Kicad,Pcbnew,(6.0.4)
; #@! TF.FileFunction,Plated,1,2,PTH
FMAT,2
METRIC
; #@! TA.AperFunction,Plated,PTH,ViaDrill
T1C0.300
; #@! TA.AperFunction,Plated,PTH,ComponentDrill
T2C0.400
; #@! TA.AperFunction,Plated,PTH,ComponentDrill
T3C1.000
%
G90
G05
T1
X133.7Y-92.6
X137.4Y-96.2
X137.6Y-86.8
X139.5Y-90.7
T2
X118.41Y-88.6
X118.45Y-87.4
T3
X114.55Y-92.13
X114.55Y-94.67
X119.51Y-74.3
X122.05Y-74.3
X124.05Y-77.33
X124.05Y-79.87
X126.58Y-74.2
X129.12Y-74.2
X140.05Y-85.33
X140.05Y-87.87
X140.05Y-93.13
X140.05Y-95.67
X143.35Y-93.13
X143.35Y-95.67
T0
M30
